<?xml version="1.0" encoding="UTF-8" standalone="no"?>
<!DOCTYPE svg PUBLIC "-//W3C//DTD SVG 1.1//EN" "http://www.w3.org/Graphics/SVG/1.1/DTD/svg11.dtd">
<svg width="100%" height="100%" viewBox="0 0 3722 1072" version="1.1" xmlns="http://www.w3.org/2000/svg" xmlns:xlink="http://www.w3.org/1999/xlink" xml:space="preserve" xmlns:serif="http://www.serif.com/" style="fill-rule:evenodd;clip-rule:evenodd;stroke-linejoin:round;stroke-miterlimit:2;">
    <g transform="matrix(5.55556,0,0,5.55556,-12.4519,0)">
        <g id="Artboard1" transform="matrix(0.679251,0,0,0.594247,-364.826,-237.736)">
            <rect x="540.401" y="400.062" width="986.21" height="324.464" style="fill-opacity:0;"/>
            <g transform="matrix(1.23847,0,0,1.41563,-376.207,-250.645)">
                <g transform="matrix(192.574,0,0,192.574,952.028,623.108)">
                    <path d="M0.09,-0C0.083,-0 0.078,-0.002 0.073,-0.007C0.069,-0.011 0.066,-0.017 0.066,-0.024L0.066,-0.495C0.066,-0.502 0.069,-0.508 0.073,-0.513C0.078,-0.518 0.083,-0.52 0.09,-0.52L0.171,-0.52C0.178,-0.52 0.184,-0.518 0.189,-0.513C0.193,-0.508 0.196,-0.502 0.196,-0.495L0.196,-0.454C0.211,-0.475 0.231,-0.492 0.256,-0.503C0.28,-0.514 0.308,-0.52 0.34,-0.52L0.381,-0.52C0.388,-0.52 0.394,-0.518 0.398,-0.513C0.403,-0.509 0.405,-0.503 0.405,-0.496L0.405,-0.424C0.405,-0.417 0.403,-0.412 0.398,-0.407C0.394,-0.403 0.388,-0.4 0.381,-0.4L0.303,-0.4C0.271,-0.4 0.247,-0.391 0.229,-0.373C0.211,-0.355 0.202,-0.331 0.202,-0.299L0.202,-0.024C0.202,-0.017 0.199,-0.011 0.195,-0.007C0.19,-0.002 0.184,-0 0.177,-0L0.09,-0Z" style="fill:white;fill-rule:nonzero;"/>
                </g>
                <g transform="matrix(192.574,0,0,192.574,1030.03,623.108)">
                    <path d="M0.29,0.01C0.216,0.01 0.158,-0.011 0.114,-0.054C0.071,-0.097 0.047,-0.157 0.044,-0.236C0.044,-0.242 0.043,-0.251 0.043,-0.261C0.043,-0.272 0.044,-0.28 0.044,-0.286C0.047,-0.336 0.058,-0.38 0.078,-0.416C0.099,-0.453 0.127,-0.481 0.163,-0.501C0.199,-0.52 0.241,-0.53 0.29,-0.53C0.344,-0.53 0.389,-0.519 0.426,-0.496C0.462,-0.474 0.49,-0.443 0.509,-0.403C0.527,-0.364 0.537,-0.318 0.537,-0.266L0.537,-0.245C0.537,-0.238 0.534,-0.233 0.53,-0.228C0.525,-0.223 0.519,-0.221 0.512,-0.221L0.18,-0.221L0.18,-0.213C0.181,-0.19 0.185,-0.169 0.194,-0.149C0.202,-0.129 0.215,-0.113 0.231,-0.101C0.247,-0.089 0.267,-0.083 0.289,-0.083C0.308,-0.083 0.324,-0.086 0.336,-0.092C0.349,-0.098 0.359,-0.104 0.367,-0.111C0.375,-0.119 0.38,-0.125 0.384,-0.129C0.39,-0.137 0.395,-0.141 0.398,-0.143C0.402,-0.145 0.407,-0.146 0.415,-0.146L0.501,-0.146C0.508,-0.146 0.513,-0.144 0.517,-0.14C0.521,-0.136 0.523,-0.131 0.523,-0.125C0.522,-0.114 0.517,-0.101 0.506,-0.086C0.496,-0.071 0.481,-0.056 0.462,-0.041C0.442,-0.026 0.418,-0.014 0.389,-0.004C0.361,0.005 0.328,0.01 0.29,0.01ZM0.18,-0.305L0.401,-0.305L0.401,-0.308C0.401,-0.334 0.397,-0.356 0.388,-0.376C0.379,-0.396 0.367,-0.411 0.35,-0.422C0.333,-0.433 0.313,-0.439 0.29,-0.439C0.267,-0.439 0.247,-0.433 0.23,-0.422C0.214,-0.411 0.201,-0.396 0.193,-0.376C0.184,-0.356 0.18,-0.334 0.18,-0.308L0.18,-0.305Z" style="fill:white;fill-rule:nonzero;"/>
                </g>
                <g transform="matrix(192.574,0,0,192.574,1141.2,623.108)">
                    <path d="M0.091,-0C0.084,-0 0.078,-0.002 0.074,-0.007C0.069,-0.011 0.067,-0.017 0.067,-0.024L0.067,-0.686C0.067,-0.693 0.069,-0.699 0.074,-0.703C0.078,-0.708 0.084,-0.71 0.091,-0.71L0.174,-0.71C0.181,-0.71 0.186,-0.708 0.191,-0.703C0.196,-0.699 0.198,-0.693 0.198,-0.686L0.198,-0.024C0.198,-0.017 0.196,-0.011 0.191,-0.007C0.186,-0.002 0.181,-0 0.174,-0L0.091,-0Z" style="fill:white;fill-rule:nonzero;"/>
                </g>
                <g transform="matrix(192.574,0,0,192.574,1192.2,623.108)">
                    <path d="M0.217,0.01C0.183,0.01 0.151,0.003 0.123,-0.01C0.095,-0.024 0.073,-0.042 0.057,-0.065C0.04,-0.088 0.032,-0.114 0.032,-0.143C0.032,-0.19 0.051,-0.227 0.089,-0.254C0.127,-0.282 0.176,-0.3 0.238,-0.31L0.375,-0.33L0.375,-0.351C0.375,-0.379 0.368,-0.4 0.354,-0.416C0.34,-0.431 0.316,-0.439 0.282,-0.439C0.258,-0.439 0.238,-0.434 0.223,-0.424C0.208,-0.415 0.197,-0.402 0.19,-0.386C0.185,-0.377 0.177,-0.373 0.167,-0.373L0.088,-0.373C0.081,-0.373 0.075,-0.375 0.072,-0.379C0.068,-0.383 0.066,-0.389 0.066,-0.395C0.067,-0.406 0.071,-0.418 0.079,-0.434C0.087,-0.449 0.1,-0.464 0.117,-0.478C0.135,-0.493 0.157,-0.505 0.184,-0.515C0.211,-0.525 0.244,-0.53 0.283,-0.53C0.325,-0.53 0.36,-0.525 0.389,-0.515C0.418,-0.504 0.441,-0.49 0.459,-0.473C0.476,-0.455 0.489,-0.435 0.497,-0.412C0.505,-0.388 0.509,-0.364 0.509,-0.338L0.509,-0.024C0.509,-0.017 0.507,-0.011 0.502,-0.007C0.498,-0.002 0.492,-0 0.485,-0L0.404,-0C0.397,-0 0.391,-0.002 0.387,-0.007C0.382,-0.011 0.38,-0.017 0.38,-0.024L0.38,-0.063C0.371,-0.051 0.36,-0.039 0.345,-0.028C0.331,-0.017 0.313,-0.008 0.292,-0.001C0.271,0.006 0.246,0.01 0.217,0.01ZM0.251,-0.085C0.275,-0.085 0.296,-0.09 0.315,-0.1C0.334,-0.11 0.349,-0.125 0.36,-0.147C0.371,-0.168 0.376,-0.194 0.376,-0.226L0.376,-0.247L0.276,-0.231C0.236,-0.225 0.207,-0.215 0.188,-0.202C0.169,-0.188 0.159,-0.172 0.159,-0.153C0.159,-0.138 0.164,-0.125 0.173,-0.115C0.181,-0.105 0.193,-0.098 0.207,-0.092C0.221,-0.087 0.235,-0.085 0.251,-0.085Z" style="fill:white;fill-rule:nonzero;"/>
                </g>
                <g transform="matrix(192.574,0,0,192.574,1300.41,623.108)">
                    <path d="M0.16,0.19C0.155,0.19 0.15,0.188 0.146,0.184C0.142,0.18 0.14,0.175 0.14,0.17C0.14,0.167 0.14,0.165 0.141,0.163C0.141,0.16 0.142,0.157 0.144,0.154L0.222,-0.031L0.03,-0.484C0.027,-0.49 0.026,-0.495 0.026,-0.498C0.027,-0.504 0.029,-0.509 0.033,-0.514C0.037,-0.518 0.042,-0.52 0.048,-0.52L0.129,-0.52C0.137,-0.52 0.143,-0.518 0.147,-0.514C0.151,-0.51 0.154,-0.506 0.156,-0.501L0.289,-0.174L0.426,-0.501C0.428,-0.506 0.431,-0.51 0.435,-0.514C0.439,-0.518 0.445,-0.52 0.453,-0.52L0.533,-0.52C0.538,-0.52 0.543,-0.518 0.548,-0.514C0.552,-0.51 0.554,-0.505 0.554,-0.5C0.554,-0.496 0.553,-0.491 0.55,-0.484L0.267,0.171C0.265,0.176 0.261,0.18 0.257,0.184C0.253,0.188 0.247,0.19 0.239,0.19L0.16,0.19Z" style="fill:white;fill-rule:nonzero;"/>
                </g>
                <g transform="matrix(192.574,0,0,192.574,1403.49,623.108)">
                    <path d="M0.039,-0C0.033,-0 0.028,-0.002 0.024,-0.006C0.02,-0.01 0.018,-0.015 0.018,-0.021C0.018,-0.023 0.018,-0.025 0.019,-0.027C0.02,-0.029 0.02,-0.031 0.021,-0.033L0.245,-0.357L0.035,-0.667C0.033,-0.671 0.032,-0.675 0.032,-0.679C0.032,-0.685 0.034,-0.69 0.038,-0.694C0.042,-0.698 0.047,-0.7 0.053,-0.7L0.155,-0.7C0.163,-0.7 0.17,-0.698 0.174,-0.694C0.179,-0.69 0.183,-0.685 0.186,-0.681L0.333,-0.465L0.481,-0.681C0.484,-0.685 0.488,-0.69 0.493,-0.694C0.498,-0.698 0.504,-0.7 0.512,-0.7L0.609,-0.7C0.615,-0.7 0.62,-0.698 0.624,-0.694C0.628,-0.69 0.63,-0.685 0.63,-0.679C0.63,-0.675 0.629,-0.671 0.626,-0.667L0.417,-0.357L0.641,-0.033C0.642,-0.031 0.643,-0.029 0.644,-0.027C0.644,-0.025 0.645,-0.023 0.645,-0.021C0.645,-0.015 0.643,-0.01 0.638,-0.006C0.634,-0.002 0.629,-0 0.624,-0L0.518,-0C0.51,-0 0.504,-0.002 0.499,-0.006C0.494,-0.01 0.49,-0.014 0.488,-0.018L0.328,-0.244L0.171,-0.018C0.168,-0.014 0.164,-0.01 0.16,-0.006C0.155,-0.002 0.148,-0 0.14,-0L0.039,-0Z" style="fill:rgb(241,90,36);fill-rule:nonzero;"/>
                </g>
                <g transform="matrix(192.574,0,0,192.574,1530.94,623.108)">
                </g>
            </g>
            <g id="icon" transform="matrix(1.25273,0,0,1.43192,-281.576,-213.58)">
                <g transform="matrix(-61.3222,-176.94,-176.94,61.3222,786.773,613.62)">
                    <path d="M0.204,0.085L0.009,-0.061L0.25,-0.146L0.29,-0.386L0.47,-0.222L0.709,-0.305L0.649,-0.07L0.823,0.084L0.601,0.161L0.558,0.389L0.382,0.237L0.145,0.319L0.204,0.085ZM-0.057,-0.071L0.168,0.097L0.101,0.367L0.375,0.273L0.579,0.448L0.628,0.185L0.884,0.096L0.684,-0.081L0.753,-0.353L0.477,-0.258L0.268,-0.448L0.222,-0.169L-0.057,-0.071Z" style="fill:url(#_Linear1);fill-rule:nonzero;"/>
                </g>
                <g transform="matrix(-61.3222,-176.94,-176.94,61.3222,785.383,614.102)">
                    <path d="M0.517,0.262C0.373,0.312 0.214,0.235 0.164,0.091C0.114,-0.054 0.191,-0.212 0.336,-0.262C0.48,-0.312 0.639,-0.235 0.689,-0.091C0.739,0.054 0.662,0.212 0.517,0.262ZM0.507,0.233C0.635,0.188 0.704,0.048 0.659,-0.081C0.615,-0.209 0.474,-0.277 0.346,-0.233C0.218,-0.188 0.149,-0.048 0.194,0.081C0.238,0.209 0.379,0.277 0.507,0.233Z" style="fill:url(#_Linear2);fill-rule:nonzero;"/>
                </g>
                <g transform="matrix(-61.3222,-176.94,-176.94,61.3222,785.389,614.1)">
                    <path d="M0.581,0.446C0.335,0.531 0.066,0.4 -0.019,0.154C-0.104,-0.091 0.026,-0.361 0.272,-0.446C0.518,-0.531 0.787,-0.4 0.872,-0.154C0.957,0.091 0.827,0.361 0.581,0.446ZM0.571,0.416C0.8,0.337 0.922,0.085 0.843,-0.144C0.763,-0.374 0.512,-0.496 0.282,-0.416C0.053,-0.337 -0.069,-0.085 0.01,0.144C0.09,0.374 0.341,0.496 0.571,0.416Z" style="fill:url(#_Linear3);fill-rule:nonzero;"/>
                </g>
                <g transform="matrix(6.11067e-13,187.265,187.265,-6.11067e-13,759.234,552.995)">
                    <circle cx="0.182" cy="-0" r="0.049" style="fill:url(#_Linear4);"/>
                </g>
                <g transform="matrix(-1.98952e-13,187.265,187.265,1.98952e-13,759.234,365.778)">
                    <ellipse cx="0.668" cy="0" rx="0.049" ry="0.049" style="fill:url(#_Linear5);"/>
                </g>
                <g transform="matrix(9.9476e-14,187.265,187.265,-9.9476e-14,716.413,489.749)">
                    <circle cx="0.385" cy="0" r="0.049" style="fill:url(#_Linear6);"/>
                </g>
                <g transform="matrix(6.6791e-13,187.265,187.265,-6.6791e-13,802.055,517.793)">
                    <circle cx="0.235" cy="-0" r="0.049" style="fill:url(#_Linear7);"/>
                </g>
                <g transform="matrix(-7.03437e-13,187.265,187.265,7.03437e-13,716.419,395.613)">
                    <ellipse cx="0.629" cy="-0" rx="0.049" ry="0.049" style="fill:url(#_Linear8);"/>
                </g>
                <g transform="matrix(6.6791e-13,187.265,187.265,-6.6791e-13,802.06,423.657)">
                    <ellipse cx="0.479" cy="-0" rx="0.049" ry="0.049" style="fill:url(#_Linear9);"/>
                </g>
                <g transform="matrix(-5.61329e-13,187.265,187.265,5.61329e-13,843.495,486.394)">
                    <ellipse cx="0.279" cy="-0" rx="0.057" ry="0.057" style="fill:url(#_Linear10);"/>
                </g>
                <g transform="matrix(1.3074e-12,187.265,187.265,-1.3074e-12,800.145,617.19)">
                    <circle cx="-0.021" cy="-0" r="0.057" style="fill:url(#_Linear11);"/>
                </g>
                <g transform="matrix(-3.19744e-13,187.265,187.265,3.19744e-13,800.145,327.203)">
                    <circle cx="0.731" cy="-0" r="0.057" style="fill:url(#_Linear12);"/>
                </g>
                <g transform="matrix(-1.06581e-13,187.265,187.265,1.06581e-13,717.111,589.992)">
                    <ellipse cx="0.124" cy="-0" rx="0.057" ry="0.057" style="fill:url(#_Linear13);"/>
                </g>
                <g transform="matrix(9.9476e-14,187.265,187.265,-9.9476e-14,717.111,300.005)">
                    <ellipse cx="0.876" cy="-0" rx="0.057" ry="0.057" style="fill:url(#_Linear14);"/>
                </g>
                <g transform="matrix(5.96856e-13,187.265,187.265,-5.96856e-13,674.983,431.212)">
                    <ellipse cx="0.574" cy="0" rx="0.057" ry="0.057" style="fill:url(#_Linear15);"/>
                </g>
                <g transform="matrix(1.15108e-12,187.265,187.265,-1.15108e-12,752.659,593.63)">
                    <ellipse cx="0.083" cy="0" rx="0.028" ry="0.028" style="fill:url(#_Linear16);"/>
                </g>
                <g transform="matrix(4.76064e-13,187.265,187.265,-4.76064e-13,823.154,533.126)">
                    <ellipse cx="0.176" cy="0" rx="0.026" ry="0.026" style="fill:url(#_Linear17);"/>
                </g>
                <g transform="matrix(5.54223e-13,187.265,187.265,-5.54223e-13,699.948,516.077)">
                    <ellipse cx="0.331" cy="-0" rx="0.026" ry="0.026" style="fill:url(#_Linear18);"/>
                </g>
                <g transform="matrix(4.12115e-13,187.265,187.265,-4.12115e-13,813.355,392.137)">
                    <ellipse cx="0.551" cy="-0" rx="0.023" ry="0.023" style="fill:url(#_Linear19);"/>
                </g>
                <g transform="matrix(-2.4869e-12,187.265,187.265,2.4869e-12,767.827,598.597)">
                    <ellipse cx="0.056" cy="-0" rx="0.017" ry="0.017" style="fill:url(#_Linear20);"/>
                </g>
                <g transform="matrix(-61.3222,-176.94,-176.94,61.3222,813.696,604.29)">
                    <path d="M0.776,0.026C0.762,0.031 0.745,0.024 0.74,0.01C0.734,-0.004 0.741,-0.02 0.755,-0.026C0.769,-0.031 0.785,-0.024 0.791,-0.01C0.791,-0.01 0.791,-0.009 0.791,-0.009C0.796,0.005 0.789,0.02 0.776,0.026Z" style="fill:url(#_Linear21);fill-rule:nonzero;"/>
                </g>
                <g transform="matrix(-61.3222,-176.94,-176.94,61.3222,745.353,627.975)">
                    <path d="M0.743,0.026C0.729,0.031 0.713,0.024 0.707,0.01C0.701,-0.004 0.708,-0.02 0.722,-0.026C0.736,-0.031 0.752,-0.024 0.758,-0.01C0.758,-0.01 0.758,-0.009 0.758,-0.009C0.763,0.005 0.756,0.02 0.743,0.026Z" style="fill:url(#_Linear22);fill-rule:nonzero;"/>
                </g>
                <g transform="matrix(-61.3222,-176.94,-176.94,61.3222,799.235,609.301)">
                    <path d="M0.803,0.016C0.795,0.019 0.785,0.015 0.781,0.006C0.778,-0.002 0.782,-0.012 0.79,-0.016C0.799,-0.019 0.809,-0.015 0.812,-0.006C0.813,-0.006 0.813,-0.006 0.813,-0.006C0.816,0.003 0.811,0.012 0.803,0.016Z" style="fill:url(#_Linear23);fill-rule:nonzero;"/>
                </g>
            </g>
        </g>
    </g>
    <defs>
        <linearGradient id="_Linear1" x1="0" y1="0" x2="1" y2="0" gradientUnits="userSpaceOnUse" gradientTransform="matrix(1,0,0,-1,0,2.16843e-08)"><stop offset="0" style="stop-color:rgb(241,90,36);stop-opacity:1"/><stop offset="1" style="stop-color:rgb(247,147,30);stop-opacity:1"/></linearGradient>
        <linearGradient id="_Linear2" x1="0" y1="0" x2="1" y2="0" gradientUnits="userSpaceOnUse" gradientTransform="matrix(1,0,0,-1,0,-4.93404e-06)"><stop offset="0" style="stop-color:rgb(241,90,36);stop-opacity:1"/><stop offset="1" style="stop-color:rgb(247,147,30);stop-opacity:1"/></linearGradient>
        <linearGradient id="_Linear3" x1="0" y1="0" x2="1" y2="0" gradientUnits="userSpaceOnUse" gradientTransform="matrix(1,0,0,-1,0,3.04944e-06)"><stop offset="0" style="stop-color:rgb(241,90,36);stop-opacity:1"/><stop offset="1" style="stop-color:rgb(247,147,30);stop-opacity:1"/></linearGradient>
        <linearGradient id="_Linear4" x1="0" y1="0" x2="1" y2="0" gradientUnits="userSpaceOnUse" gradientTransform="matrix(-0.944864,-0.327462,-0.327462,0.944864,0.354047,0.0596118)"><stop offset="0" style="stop-color:rgb(241,90,36);stop-opacity:1"/><stop offset="1" style="stop-color:rgb(247,147,30);stop-opacity:1"/></linearGradient>
        <linearGradient id="_Linear5" x1="0" y1="0" x2="1" y2="0" gradientUnits="userSpaceOnUse" gradientTransform="matrix(-0.944864,-0.327462,-0.327462,0.944864,1.29867,0.218661)"><stop offset="0" style="stop-color:rgb(241,90,36);stop-opacity:1"/><stop offset="1" style="stop-color:rgb(247,147,30);stop-opacity:1"/></linearGradient>
        <linearGradient id="_Linear6" x1="0" y1="0" x2="1" y2="0" gradientUnits="userSpaceOnUse" gradientTransform="matrix(-0.944864,-0.327462,-0.327462,0.944864,0.748039,0.125949)"><stop offset="0" style="stop-color:rgb(241,90,36);stop-opacity:1"/><stop offset="1" style="stop-color:rgb(247,147,30);stop-opacity:1"/></linearGradient>
        <linearGradient id="_Linear7" x1="0" y1="0" x2="1" y2="0" gradientUnits="userSpaceOnUse" gradientTransform="matrix(-0.944864,-0.327462,-0.327462,0.944864,0.456782,0.0769097)"><stop offset="0" style="stop-color:rgb(241,90,36);stop-opacity:1"/><stop offset="1" style="stop-color:rgb(247,147,30);stop-opacity:1"/></linearGradient>
        <linearGradient id="_Linear8" x1="0" y1="0" x2="1" y2="0" gradientUnits="userSpaceOnUse" gradientTransform="matrix(-0.944864,-0.327462,-0.327462,0.944864,1.22301,0.205921)"><stop offset="0" style="stop-color:rgb(241,90,36);stop-opacity:1"/><stop offset="1" style="stop-color:rgb(247,147,30);stop-opacity:1"/></linearGradient>
        <linearGradient id="_Linear9" x1="0" y1="0" x2="1" y2="0" gradientUnits="userSpaceOnUse" gradientTransform="matrix(-0.944864,-0.327462,-0.327462,0.944864,0.931749,0.156881)"><stop offset="0" style="stop-color:rgb(241,90,36);stop-opacity:1"/><stop offset="1" style="stop-color:rgb(247,147,30);stop-opacity:1"/></linearGradient>
        <linearGradient id="_Linear10" x1="0" y1="0" x2="1" y2="0" gradientUnits="userSpaceOnUse" gradientTransform="matrix(-0.944864,-0.327462,-0.327462,0.944864,0.542748,0.0913839)"><stop offset="0" style="stop-color:rgb(241,90,36);stop-opacity:1"/><stop offset="1" style="stop-color:rgb(247,147,30);stop-opacity:1"/></linearGradient>
        <linearGradient id="_Linear11" x1="0" y1="0" x2="1" y2="0" gradientUnits="userSpaceOnUse" gradientTransform="matrix(-0.944864,-0.327462,-0.327462,0.944864,-0.0413957,-0.0069699)"><stop offset="0" style="stop-color:rgb(241,90,36);stop-opacity:1"/><stop offset="1" style="stop-color:rgb(247,147,30);stop-opacity:1"/></linearGradient>
        <linearGradient id="_Linear12" x1="0" y1="0" x2="1" y2="0" gradientUnits="userSpaceOnUse" gradientTransform="matrix(-0.944864,-0.327462,-0.327462,0.944864,1.42176,0.239386)"><stop offset="0" style="stop-color:rgb(241,90,36);stop-opacity:1"/><stop offset="1" style="stop-color:rgb(247,147,30);stop-opacity:1"/></linearGradient>
        <linearGradient id="_Linear13" x1="0" y1="0" x2="1" y2="0" gradientUnits="userSpaceOnUse" gradientTransform="matrix(-0.944864,-0.327462,-0.327462,0.944864,0.241033,0.0405833)"><stop offset="0" style="stop-color:rgb(241,90,36);stop-opacity:1"/><stop offset="1" style="stop-color:rgb(247,147,30);stop-opacity:1"/></linearGradient>
        <linearGradient id="_Linear14" x1="0" y1="0" x2="1" y2="0" gradientUnits="userSpaceOnUse" gradientTransform="matrix(-0.944864,-0.327462,-0.327462,0.944864,1.70419,0.286939)"><stop offset="0" style="stop-color:rgb(241,90,36);stop-opacity:1"/><stop offset="1" style="stop-color:rgb(247,147,30);stop-opacity:1"/></linearGradient>
        <linearGradient id="_Linear15" x1="0" y1="0" x2="1" y2="0" gradientUnits="userSpaceOnUse" gradientTransform="matrix(-0.944864,-0.327462,-0.327462,0.944864,1.11584,0.187877)"><stop offset="0" style="stop-color:rgb(241,90,36);stop-opacity:1"/><stop offset="1" style="stop-color:rgb(247,147,30);stop-opacity:1"/></linearGradient>
        <linearGradient id="_Linear16" x1="0" y1="0" x2="1" y2="0" gradientUnits="userSpaceOnUse" gradientTransform="matrix(-0.944864,-0.327462,-0.327462,0.944864,0.160517,0.0270267)"><stop offset="0" style="stop-color:rgb(241,90,36);stop-opacity:1"/><stop offset="1" style="stop-color:rgb(247,147,30);stop-opacity:1"/></linearGradient>
        <linearGradient id="_Linear17" x1="0" y1="0" x2="1" y2="0" gradientUnits="userSpaceOnUse" gradientTransform="matrix(-0.944864,-0.327462,-0.327462,0.944864,0.342527,0.0576722)"><stop offset="0" style="stop-color:rgb(241,90,36);stop-opacity:1"/><stop offset="1" style="stop-color:rgb(247,147,30);stop-opacity:1"/></linearGradient>
        <linearGradient id="_Linear18" x1="0" y1="0" x2="1" y2="0" gradientUnits="userSpaceOnUse" gradientTransform="matrix(-0.944864,-0.327462,-0.327462,0.944864,0.64399,0.10843)"><stop offset="0" style="stop-color:rgb(241,90,36);stop-opacity:1"/><stop offset="1" style="stop-color:rgb(247,147,30);stop-opacity:1"/></linearGradient>
        <linearGradient id="_Linear19" x1="0" y1="0" x2="1" y2="0" gradientUnits="userSpaceOnUse" gradientTransform="matrix(-0.944864,-0.327462,-0.327462,0.944864,1.07103,0.180333)"><stop offset="0" style="stop-color:rgb(241,90,36);stop-opacity:1"/><stop offset="1" style="stop-color:rgb(247,147,30);stop-opacity:1"/></linearGradient>
        <linearGradient id="_Linear20" x1="0" y1="0" x2="1" y2="0" gradientUnits="userSpaceOnUse" gradientTransform="matrix(-0.944864,-0.327462,-0.327462,0.944864,0.10893,0.0183408)"><stop offset="0" style="stop-color:rgb(241,90,36);stop-opacity:1"/><stop offset="1" style="stop-color:rgb(247,147,30);stop-opacity:1"/></linearGradient>
        <linearGradient id="_Linear21" x1="0" y1="0" x2="1" y2="0" gradientUnits="userSpaceOnUse" gradientTransform="matrix(1,0,0,-1,0,3.74598e-06)"><stop offset="0" style="stop-color:rgb(241,90,36);stop-opacity:1"/><stop offset="1" style="stop-color:rgb(247,147,30);stop-opacity:1"/></linearGradient>
        <linearGradient id="_Linear22" x1="0" y1="0" x2="1" y2="0" gradientUnits="userSpaceOnUse" gradientTransform="matrix(1,0,0,-1,0,4.19157e-06)"><stop offset="0" style="stop-color:rgb(241,90,36);stop-opacity:1"/><stop offset="1" style="stop-color:rgb(247,147,30);stop-opacity:1"/></linearGradient>
        <linearGradient id="_Linear23" x1="0" y1="0" x2="1" y2="0" gradientUnits="userSpaceOnUse" gradientTransform="matrix(1,0,0,-1,0,-5.06484e-06)"><stop offset="0" style="stop-color:rgb(241,90,36);stop-opacity:1"/><stop offset="1" style="stop-color:rgb(247,147,30);stop-opacity:1"/></linearGradient>
    </defs>
</svg>
